<?xml version="1.0" encoding="UTF-8"?>
<!DOCTYPE svg PUBLIC "-//W3C//DTD SVG 1.1//EN" "http://www.w3.org/Graphics/SVG/1.1/DTD/svg11.dtd">
<svg xmlns="http://www.w3.org/2000/svg" version="1.1" width="18px" height="18px" style="shape-rendering:geometricPrecision; text-rendering:geometricPrecision; image-rendering:optimizeQuality; fill-rule:evenodd; clip-rule:evenodd" xmlns:xlink="http://www.w3.org/1999/xlink">
<g><path style="opacity:0.072" fill="#000000" d="M 4.5,4.5 C 5.3864,3.2241 6.3864,3.2241 7.5,4.5C 7.37642,5.10667 7.04309,5.44001 6.5,5.5C 6.15829,4.66175 5.49162,4.32842 4.5,4.5 Z"/></g>
<g><path style="opacity:0.072" fill="#000000" d="M 12.5,4.5 C 11.5084,4.32842 10.8417,4.66175 10.5,5.5C 9.1153,4.69775 9.28197,4.03108 11,3.5C 11.7648,3.56993 12.2648,3.90326 12.5,4.5 Z"/></g>
<g><path style="opacity:0.084" fill="#000000" d="M 4.5,4.5 C 4.84171,5.33825 5.50838,5.67158 6.5,5.5C 4.81126,6.30374 3.14459,7.30374 1.5,8.5C 2.24269,9.18185 2.90935,9.84851 3.5,10.5C 2.83333,10.5 2.5,10.8333 2.5,11.5C 1.35089,11.2089 0.684227,10.3756 0.5,9C 0.617111,6.38444 1.95044,4.88444 4.5,4.5 Z"/></g>
<g><path style="opacity:0.081" fill="#000000" d="M 12.5,4.5 C 16.3172,5.53347 17.3172,7.8668 15.5,11.5C 14.1667,12.1667 12.8333,12.8333 11.5,13.5C 10.6143,12.675 10.281,11.675 10.5,10.5C 12.4835,10.6168 14.1502,9.95012 15.5,8.5C 13.8554,7.30374 12.1887,6.30374 10.5,5.5C 11.4916,5.67158 12.1583,5.33825 12.5,4.5 Z"/></g>
<g><path style="opacity:0.02" fill="#000000" d="M 7.5,8.5 C 7.89657,7.47498 8.56323,7.30831 9.5,8C 8.90558,8.46434 8.23891,8.63101 7.5,8.5 Z"/></g>
<g><path style="opacity:0.093" fill="#000000" d="M 8.5,11.5 C 6.90097,11.2322 5.56764,11.5655 4.5,12.5C 3.50838,12.6716 2.84171,12.3382 2.5,11.5C 3.16667,11.5 3.5,11.1667 3.5,10.5C 4.82207,10.67 5.98873,10.3366 7,9.5C 7.71719,10.0442 8.21719,10.7109 8.5,11.5 Z"/></g>
<g><path style="opacity:0.086" fill="#000000" d="M 8.5,11.5 C 9.73747,12.7434 9.40414,13.7434 7.5,14.5C 6.26133,14.0576 5.26133,13.3909 4.5,12.5C 6.09903,12.7678 7.43236,12.4345 8.5,11.5 Z"/></g>
</svg>
